G04 #@! TF.GenerationSoftware,KiCad,Pcbnew,8.0.3*
G04 #@! TF.CreationDate,2024-06-25T16:21:06+09:00*
G04 #@! TF.ProjectId,adb-usb-converter,6164622d-7573-4622-9d63-6f6e76657274,rev?*
G04 #@! TF.SameCoordinates,Original*
G04 #@! TF.FileFunction,Legend,Top*
G04 #@! TF.FilePolarity,Positive*
%FSLAX46Y46*%
G04 Gerber Fmt 4.6, Leading zero omitted, Abs format (unit mm)*
G04 Created by KiCad (PCBNEW 8.0.3) date 2024-06-25 16:21:06*
%MOMM*%
%LPD*%
G01*
G04 APERTURE LIST*
%ADD10C,0.150000*%
%ADD11C,0.120000*%
G04 APERTURE END LIST*
D10*
X114499047Y-2899580D02*
X114451428Y-2947200D01*
X114451428Y-2947200D02*
X114308571Y-2994819D01*
X114308571Y-2994819D02*
X114213333Y-2994819D01*
X114213333Y-2994819D02*
X114070476Y-2947200D01*
X114070476Y-2947200D02*
X113975238Y-2851961D01*
X113975238Y-2851961D02*
X113927619Y-2756723D01*
X113927619Y-2756723D02*
X113880000Y-2566247D01*
X113880000Y-2566247D02*
X113880000Y-2423390D01*
X113880000Y-2423390D02*
X113927619Y-2232914D01*
X113927619Y-2232914D02*
X113975238Y-2137676D01*
X113975238Y-2137676D02*
X114070476Y-2042438D01*
X114070476Y-2042438D02*
X114213333Y-1994819D01*
X114213333Y-1994819D02*
X114308571Y-1994819D01*
X114308571Y-1994819D02*
X114451428Y-2042438D01*
X114451428Y-2042438D02*
X114499047Y-2090057D01*
X115118095Y-1994819D02*
X115308571Y-1994819D01*
X115308571Y-1994819D02*
X115403809Y-2042438D01*
X115403809Y-2042438D02*
X115499047Y-2137676D01*
X115499047Y-2137676D02*
X115546666Y-2328152D01*
X115546666Y-2328152D02*
X115546666Y-2661485D01*
X115546666Y-2661485D02*
X115499047Y-2851961D01*
X115499047Y-2851961D02*
X115403809Y-2947200D01*
X115403809Y-2947200D02*
X115308571Y-2994819D01*
X115308571Y-2994819D02*
X115118095Y-2994819D01*
X115118095Y-2994819D02*
X115022857Y-2947200D01*
X115022857Y-2947200D02*
X114927619Y-2851961D01*
X114927619Y-2851961D02*
X114880000Y-2661485D01*
X114880000Y-2661485D02*
X114880000Y-2328152D01*
X114880000Y-2328152D02*
X114927619Y-2137676D01*
X114927619Y-2137676D02*
X115022857Y-2042438D01*
X115022857Y-2042438D02*
X115118095Y-1994819D01*
X115975238Y-2994819D02*
X115975238Y-1994819D01*
X115975238Y-1994819D02*
X116213333Y-1994819D01*
X116213333Y-1994819D02*
X116356190Y-2042438D01*
X116356190Y-2042438D02*
X116451428Y-2137676D01*
X116451428Y-2137676D02*
X116499047Y-2232914D01*
X116499047Y-2232914D02*
X116546666Y-2423390D01*
X116546666Y-2423390D02*
X116546666Y-2566247D01*
X116546666Y-2566247D02*
X116499047Y-2756723D01*
X116499047Y-2756723D02*
X116451428Y-2851961D01*
X116451428Y-2851961D02*
X116356190Y-2947200D01*
X116356190Y-2947200D02*
X116213333Y-2994819D01*
X116213333Y-2994819D02*
X115975238Y-2994819D01*
X116975238Y-2471009D02*
X117308571Y-2471009D01*
X117451428Y-2994819D02*
X116975238Y-2994819D01*
X116975238Y-2994819D02*
X116975238Y-1994819D01*
X116975238Y-1994819D02*
X117451428Y-1994819D01*
X117832381Y-2947200D02*
X117975238Y-2994819D01*
X117975238Y-2994819D02*
X118213333Y-2994819D01*
X118213333Y-2994819D02*
X118308571Y-2947200D01*
X118308571Y-2947200D02*
X118356190Y-2899580D01*
X118356190Y-2899580D02*
X118403809Y-2804342D01*
X118403809Y-2804342D02*
X118403809Y-2709104D01*
X118403809Y-2709104D02*
X118356190Y-2613866D01*
X118356190Y-2613866D02*
X118308571Y-2566247D01*
X118308571Y-2566247D02*
X118213333Y-2518628D01*
X118213333Y-2518628D02*
X118022857Y-2471009D01*
X118022857Y-2471009D02*
X117927619Y-2423390D01*
X117927619Y-2423390D02*
X117880000Y-2375771D01*
X117880000Y-2375771D02*
X117832381Y-2280533D01*
X117832381Y-2280533D02*
X117832381Y-2185295D01*
X117832381Y-2185295D02*
X117880000Y-2090057D01*
X117880000Y-2090057D02*
X117927619Y-2042438D01*
X117927619Y-2042438D02*
X118022857Y-1994819D01*
X118022857Y-1994819D02*
X118260952Y-1994819D01*
X118260952Y-1994819D02*
X118403809Y-2042438D01*
X119499047Y-3090057D02*
X119403809Y-3042438D01*
X119403809Y-3042438D02*
X119308571Y-2947200D01*
X119308571Y-2947200D02*
X119165714Y-2804342D01*
X119165714Y-2804342D02*
X119070476Y-2756723D01*
X119070476Y-2756723D02*
X118975238Y-2756723D01*
X119022857Y-2994819D02*
X118927619Y-2947200D01*
X118927619Y-2947200D02*
X118832381Y-2851961D01*
X118832381Y-2851961D02*
X118784762Y-2661485D01*
X118784762Y-2661485D02*
X118784762Y-2328152D01*
X118784762Y-2328152D02*
X118832381Y-2137676D01*
X118832381Y-2137676D02*
X118927619Y-2042438D01*
X118927619Y-2042438D02*
X119022857Y-1994819D01*
X119022857Y-1994819D02*
X119213333Y-1994819D01*
X119213333Y-1994819D02*
X119308571Y-2042438D01*
X119308571Y-2042438D02*
X119403809Y-2137676D01*
X119403809Y-2137676D02*
X119451428Y-2328152D01*
X119451428Y-2328152D02*
X119451428Y-2661485D01*
X119451428Y-2661485D02*
X119403809Y-2851961D01*
X119403809Y-2851961D02*
X119308571Y-2947200D01*
X119308571Y-2947200D02*
X119213333Y-2994819D01*
X119213333Y-2994819D02*
X119022857Y-2994819D01*
X119880000Y-1994819D02*
X119880000Y-2804342D01*
X119880000Y-2804342D02*
X119927619Y-2899580D01*
X119927619Y-2899580D02*
X119975238Y-2947200D01*
X119975238Y-2947200D02*
X120070476Y-2994819D01*
X120070476Y-2994819D02*
X120260952Y-2994819D01*
X120260952Y-2994819D02*
X120356190Y-2947200D01*
X120356190Y-2947200D02*
X120403809Y-2899580D01*
X120403809Y-2899580D02*
X120451428Y-2804342D01*
X120451428Y-2804342D02*
X120451428Y-1994819D01*
X120880000Y-2709104D02*
X121356190Y-2709104D01*
X120784762Y-2994819D02*
X121118095Y-1994819D01*
X121118095Y-1994819D02*
X121451428Y-2994819D01*
X121784762Y-2994819D02*
X121784762Y-1994819D01*
X121784762Y-1994819D02*
X122022857Y-1994819D01*
X122022857Y-1994819D02*
X122165714Y-2042438D01*
X122165714Y-2042438D02*
X122260952Y-2137676D01*
X122260952Y-2137676D02*
X122308571Y-2232914D01*
X122308571Y-2232914D02*
X122356190Y-2423390D01*
X122356190Y-2423390D02*
X122356190Y-2566247D01*
X122356190Y-2566247D02*
X122308571Y-2756723D01*
X122308571Y-2756723D02*
X122260952Y-2851961D01*
X122260952Y-2851961D02*
X122165714Y-2947200D01*
X122165714Y-2947200D02*
X122022857Y-2994819D01*
X122022857Y-2994819D02*
X121784762Y-2994819D01*
X123832381Y-1994819D02*
X123832381Y-2709104D01*
X123832381Y-2709104D02*
X123784762Y-2851961D01*
X123784762Y-2851961D02*
X123689524Y-2947200D01*
X123689524Y-2947200D02*
X123546667Y-2994819D01*
X123546667Y-2994819D02*
X123451429Y-2994819D01*
X124308572Y-2994819D02*
X124308572Y-1994819D01*
X124880000Y-2994819D02*
X124451429Y-2423390D01*
X124880000Y-1994819D02*
X124308572Y-2566247D01*
X135954819Y-333333D02*
X136669104Y-333333D01*
X136669104Y-333333D02*
X136811961Y-380952D01*
X136811961Y-380952D02*
X136907200Y-476190D01*
X136907200Y-476190D02*
X136954819Y-619047D01*
X136954819Y-619047D02*
X136954819Y-714285D01*
X136954819Y666666D02*
X136954819Y95238D01*
X136954819Y380952D02*
X135954819Y380952D01*
X135954819Y380952D02*
X136097676Y285714D01*
X136097676Y285714D02*
X136192914Y190476D01*
X136192914Y190476D02*
X136240533Y95238D01*
X129881333Y1465180D02*
X129548000Y1941371D01*
X129309905Y1465180D02*
X129309905Y2465180D01*
X129309905Y2465180D02*
X129690857Y2465180D01*
X129690857Y2465180D02*
X129786095Y2417561D01*
X129786095Y2417561D02*
X129833714Y2369942D01*
X129833714Y2369942D02*
X129881333Y2274704D01*
X129881333Y2274704D02*
X129881333Y2131847D01*
X129881333Y2131847D02*
X129833714Y2036609D01*
X129833714Y2036609D02*
X129786095Y1988990D01*
X129786095Y1988990D02*
X129690857Y1941371D01*
X129690857Y1941371D02*
X129309905Y1941371D01*
X130833714Y1465180D02*
X130262286Y1465180D01*
X130548000Y1465180D02*
X130548000Y2465180D01*
X130548000Y2465180D02*
X130452762Y2322323D01*
X130452762Y2322323D02*
X130357524Y2227085D01*
X130357524Y2227085D02*
X130262286Y2179466D01*
D11*
X137550000Y7000000D02*
X150450000Y7000000D01*
X137550000Y-7000000D02*
X137550000Y7000000D01*
X150450000Y7000000D02*
X150450000Y-7000000D01*
X150450000Y-7000000D02*
X137550000Y-7000000D01*
X127178000Y0D02*
X128128000Y0D01*
X128128000Y920000D02*
X128128000Y-920000D01*
X128128000Y-920000D02*
X131968000Y-920000D01*
X131968000Y920000D02*
X128128000Y920000D01*
X131968000Y-920000D02*
X131968000Y920000D01*
X132918000Y0D02*
X131968000Y0D01*
M02*
